<svg width="24" height="24" viewBox="0 0 24 24" fill="none" xmlns="http://www.w3.org/2000/svg">
<path d="M16.977 19.5C18.7342 18.3364 20.0272 16.593 20.6308 14.5737C21.2344 12.5545 21.1102 10.3875 20.2799 8.4504C19.4496 6.51333 17.9658 4.92908 16.0873 3.9738C14.2087 3.01853 12.0544 2.75282 10 3.22299M16.977 19.5V16M16.977 19.5H20.5M7 4.51599C5.24891 5.6839 3.96254 7.42861 3.3646 9.44673C2.76666 11.4648 2.89497 13.6287 3.72722 15.562C4.55947 17.4953 6.04301 19.0758 7.91985 20.0286C9.7967 20.9814 11.9481 21.2462 14 20.777M7 4.51599V7.99999M7 4.51599H3.5" stroke="currentColor" stroke-width="1.5" stroke-linecap="round" stroke-linejoin="round"/>
</svg>
