<svg width="21" height="18" viewBox="0 0 21 18" fill="none" xmlns="http://www.w3.org/2000/svg">
<path d="M7.10935 16.0378L1.66587 10.5935C1.23059 10.134 0.991771 9.52286 1.00022 8.89C1.00866 8.25713 1.26371 7.65254 1.71109 7.20484C2.15847 6.75713 2.76288 6.50166 3.39574 6.49276C4.0286 6.48386 4.63995 6.72224 5.09975 7.15718L8.56236 10.6198L15.0476 1.97311C15.239 1.71767 15.4788 1.50243 15.7534 1.33968C16.028 1.17693 16.332 1.06986 16.6479 1.02458C16.9639 0.9793 17.2857 0.996699 17.5949 1.07578C17.9042 1.15486 18.1948 1.29408 18.4503 1.48549C18.7057 1.67689 18.921 1.91674 19.0837 2.19133C19.2465 2.46592 19.3535 2.76987 19.3988 3.08584C19.4441 3.40181 19.4267 3.72361 19.3476 4.03285C19.2685 4.3421 19.1293 4.63274 18.9379 4.88818L10.7723 15.7776C10.5634 16.0562 10.2971 16.2867 9.99131 16.4534C9.68558 16.6202 9.34758 16.7192 9.00021 16.7439C8.65285 16.7686 8.30424 16.7183 7.978 16.5965C7.65176 16.4747 7.35552 16.2841 7.10935 16.0378Z" stroke="currentColor" stroke-width="1.7" stroke-linejoin="round"/>
</svg>
