<svg width="15.75" height="15.75" viewBox="0 0 17 18" fill="none" xmlns="http://www.w3.org/2000/svg">
<path d="M13.9938 3.75625L13.5055 11.6509C13.3811 13.6677 13.3189 14.6765 12.8125 15.4018C12.5625 15.7602 12.2407 16.0628 11.8675 16.2901C11.1139 16.75 10.1035 16.75 8.08278 16.75C6.0589 16.75 5.04696 16.75 4.29175 16.2893C3.91839 16.0615 3.59656 15.7585 3.34675 15.3994C2.84118 14.6734 2.77975 13.663 2.65848 11.6431L2.18125 3.75625M1 3.75625H15.175M11.2816 3.75625L10.7437 2.64745C10.387 1.91035 10.2082 1.54259 9.90033 1.31264C9.83192 1.2617 9.7595 1.2164 9.68376 1.17719C9.34278 1 8.93328 1 8.11506 1C7.27559 1 6.85585 1 6.50856 1.18427C6.43179 1.22539 6.35857 1.2728 6.28964 1.32603C5.97858 1.56464 5.80454 1.94658 5.45646 2.70966L4.97924 3.75625M6.11875 12.4188V7.69375M10.0563 12.4188V7.69375" stroke="currentColor" stroke-width="1.7" stroke-linecap="round" stroke-linejoin="round"/>
</svg>
