<svg width="24" height="24" viewBox="0 0 24 24" fill="none" xmlns="http://www.w3.org/2000/svg">
<path d="M6 19.623C5.31 19.428 4.768 19.132 4.318 18.682C3 17.364 3 15.242 3 11C3 6.758 3 4.636 4.318 3.318C5.636 2 7.758 2 12 2C16.242 2 18.364 2 19.682 3.318C21 4.636 21 6.758 21 11C21 15.242 21 17.364 19.682 18.682C19.232 19.132 18.689 19.428 18 19.623" stroke="currentColor" stroke-width="1.5" stroke-linecap="round" stroke-linejoin="round"/>
<path d="M8 10H16M8 6H12M12 20.193C11.586 20.193 11.252 20.513 10.586 21.151C9.939 21.77 9.616 22.08 9.344 21.982C9.31045 21.9701 9.27827 21.9547 9.248 21.936C9 21.779 9 21.31 9 20.376V17.251C9 15.719 9 14.952 9.44 14.476C9.878 14 10.585 14 12 14C13.415 14 14.121 14 14.56 14.476C14.999 14.952 15 15.719 15 17.251V20.376C15 21.311 15 21.779 14.752 21.936C14.7217 21.9547 14.6895 21.9701 14.656 21.982C14.384 22.08 14.061 21.77 13.414 21.151C12.748 20.512 12.414 20.193 12 20.193Z" stroke="currentColor" stroke-width="1.5" stroke-linecap="round" stroke-linejoin="round"/>
</svg>
