<svg width="14.18" height="15.75" viewBox="0 0 18 18" fill="none" xmlns="http://www.w3.org/2000/svg">
<path d="M9.66221 2.57577L15.1744 8.08794M10.4497 16.7499H16.7493M10.5079 2.48521C11.0946 1.84974 11.3875 1.5324 11.6993 1.34656C12.0675 1.12621 12.4871 1.00678 12.9161 1.00028C13.3451 0.993783 13.7682 1.10045 14.1428 1.30955C14.4602 1.48594 14.7625 1.79462 15.3673 2.41198C15.9721 3.03013 16.2744 3.3396 16.4461 3.66324C16.6509 4.04863 16.7551 4.47951 16.7489 4.9159C16.7427 5.3523 16.6264 5.78005 16.4107 6.15947C16.2296 6.4776 15.9185 6.77762 15.2956 7.37687L7.89123 14.5088C6.71162 15.6451 6.12182 16.2129 5.38476 16.5011C4.64771 16.7893 3.83742 16.7672 2.21684 16.7255L1.99636 16.7192C1.50341 16.7066 1.25615 16.7003 1.11362 16.5373C0.969519 16.3743 0.989206 16.1231 1.02858 15.6207L1.04984 15.3482C1.16008 13.934 1.2152 13.2269 1.49081 12.5906C1.76642 11.9543 2.24362 11.4385 3.19643 10.4062L10.5079 2.48521Z" stroke="currentColor" stroke-width="1.7" stroke-linecap="round" stroke-linejoin="round"/>
</svg>
