<svg width="18" height="22" viewBox="0 0 18 22" fill="none" xmlns="http://www.w3.org/2000/svg">
<path d="M1 13H3.395C3.689 13 3.979 13.066 4.242 13.194L6.284 14.182C6.547 14.309 6.837 14.375 7.132 14.375H8.174C9.182 14.375 10 15.166 10 16.142C10 16.182 9.973 16.216 9.934 16.227L7.393 16.93C6.93705 17.0559 6.45087 17.0119 6.025 16.806L3.842 15.75M5.396 1.55199C6.87 0.637991 8.158 1.00599 8.931 1.59299C9.248 1.83299 9.407 1.95299 9.5 1.95299C9.593 1.95299 9.752 1.83299 10.069 1.59299C10.842 1.00599 12.129 0.637991 13.604 1.55199C15.54 2.75199 15.978 6.70799 11.514 10.046C10.663 10.682 10.238 11 9.5 11C8.762 11 8.337 10.682 7.487 10.046C3.022 6.70799 3.46 2.75099 5.396 1.55199Z" stroke="currentColor" stroke-width="1.5" stroke-linecap="round" stroke-linejoin="round"/>
<path d="M10 15.5L14.593 14.089C14.9929 13.9663 15.4213 13.9731 15.817 14.1083C16.2128 14.2435 16.5558 14.5003 16.797 14.842C17.166 15.352 17.016 16.084 16.478 16.394L8.963 20.731C8.72802 20.867 8.46781 20.9537 8.19824 20.9858C7.92866 21.018 7.65537 20.9949 7.395 20.918L1 19.02" stroke="currentColor" stroke-width="1.5" stroke-linecap="round" stroke-linejoin="round"/>
</svg>
