<?xml version="1.0" encoding="UTF-8"?>
<svg width="24" height="24" viewBox="0 0 24 24" fill="none" xmlns="http://www.w3.org/2000/svg">
  <path d="M12 2C8.13 2 5 5.13 5 9C5 11.38 6.19 13.47 8 14.74V17C8 17.55 8.45 18 9 18H15C15.55 18 16 17.55 16 17V14.74C17.81 13.47 19 11.38 19 9C19 5.13 15.87 2 12 2ZM14.85 13.1L14 13.7V16H10V13.7L9.15 13.1C7.8 12.16 7 10.63 7 9C7 6.24 9.24 4 12 4C14.76 4 17 6.24 17 9C17 10.63 16.2 12.16 14.85 13.1Z" fill="currentColor"/>
  <path d="M12 19C12.55 19 13 19.45 13 20V21C13 21.55 12.55 22 12 22C11.45 22 11 21.55 11 21V20C11 19.45 11.45 19 12 19Z" fill="currentColor"/>
</svg> 