<svg width="24" height="24" viewBox="0 0 24 24" fill="none" xmlns="http://www.w3.org/2000/svg">
<path d="M10.29 21.961H9.39C6.142 21.961 4.517 21.961 3.508 20.936C2.499 19.911 2.5 18.261 2.5 14.961V9.961C2.5 6.661 2.5 5.011 3.51 3.987C4.517 2.96 6.142 2.96 9.39 2.96H12.343C15.592 2.96 17.49 3.016 18.499 4.04C19.509 5.066 19.499 6.66 19.499 9.96V11.147M15.945 2V4M10.945 2V4M5.945 2V4M7 15H11M7 10H15" stroke="currentColor" stroke-width="1.5" stroke-linecap="round" stroke-linejoin="round"/>
<path opacity="0.93" d="M20.76 14.879C19.854 13.864 19.311 13.925 18.708 14.106C18.285 14.166 16.837 15.856 16.233 16.396C15.242 17.374 14.246 18.382 14.181 18.514C13.993 18.819 13.819 19.359 13.734 19.963C13.577 20.869 13.351 21.888 13.637 21.976C13.923 22.064 14.724 21.896 15.629 21.763C16.233 21.653 16.655 21.533 16.957 21.352C17.38 21.098 18.164 20.205 19.517 18.876C20.364 17.983 21.182 17.366 21.424 16.763C21.665 15.857 21.304 15.374 20.76 14.879Z" stroke="currentColor" stroke-width="1.5" stroke-linecap="round" stroke-linejoin="round"/>
</svg>
