<svg width="24" height="24" viewBox="0 0 24 24" fill="none" xmlns="http://www.w3.org/2000/svg">
<path fill-rule="evenodd" clip-rule="evenodd" d="M4.146 21.682C5.536 23.072 7.526 23.072 11.506 23.072H12.506C16.486 23.072 18.476 23.072 19.866 21.682C21.256 20.292 21.256 18.292 21.256 14.322V10.322C21.256 6.34202 21.256 4.35202 19.866 2.96202C18.476 1.57202 16.486 1.57202 12.506 1.57202H12.006C11.596 1.57202 11.256 1.91202 11.256 2.32202C11.256 2.73202 11.596 3.07202 12.006 3.07202H12.506C16.066 3.07202 17.856 3.07202 18.806 4.02202C19.756 4.97202 19.756 6.76202 19.756 10.322V14.322C19.756 17.882 19.756 19.672 18.806 20.622C17.856 21.572 16.066 21.572 12.506 21.572H11.506C7.946 21.572 6.156 21.572 5.206 20.622C4.256 19.672 4.256 17.882 4.256 14.322V9.32202C4.256 8.91202 3.916 8.57202 3.506 8.57202C3.096 8.57202 2.756 8.91202 2.756 9.32202V14.322C2.756 18.302 2.756 20.292 4.146 21.682ZM13.506 18.072H17.506C17.916 18.072 18.256 17.732 18.256 17.322C18.256 16.912 17.916 16.572 17.506 16.572H13.506C13.096 16.572 12.756 16.912 12.756 17.322C12.756 17.732 13.096 18.072 13.506 18.072ZM17.506 8.07202H13.506C13.096 8.07202 12.756 7.73202 12.756 7.32202C12.756 6.91202 13.096 6.57202 13.506 6.57202H17.506C17.916 6.57202 18.256 6.91202 18.256 7.32202C18.256 7.73202 17.916 8.07202 17.506 8.07202ZM13.506 13.072H17.506C17.916 13.072 18.256 12.732 18.256 12.322C18.256 11.912 17.916 11.572 17.506 11.572H13.506C13.096 11.572 12.756 11.912 12.756 12.322C12.756 12.732 13.096 13.072 13.506 13.072ZM8.006 19.072C7.706 19.072 7.436 18.892 7.316 18.622C6.965 17.806 6.38 17.576 6.304 17.545L6.296 17.542C6.10839 17.482 5.9514 17.3515 5.85813 17.178C5.76485 17.0045 5.74258 16.8016 5.796 16.612C5.916 16.222 6.316 15.992 6.706 16.102C6.796 16.122 7.316 16.282 7.856 16.792C8.396 15.742 9.326 14.322 10.676 13.652C11.046 13.462 11.496 13.622 11.686 13.992C11.876 14.362 11.726 14.812 11.346 15.002C9.656 15.852 8.736 18.542 8.726 18.572C8.626 18.862 8.356 19.072 8.046 19.082H8.016L8.006 19.072ZM6.556 8.85202C6.706 9.00202 6.896 9.07202 7.086 9.07202C7.276 9.07202 7.466 8.99202 7.616 8.85202C7.766 8.71202 8.026 8.50202 8.336 8.25202C9.756 7.10202 10.756 6.23202 10.756 5.32202C10.756 4.41202 9.756 3.53202 8.336 2.39202C8.026 2.15202 7.766 1.94202 7.616 1.79202C7.47486 1.65254 7.28443 1.57432 7.086 1.57432C6.88757 1.57432 6.69714 1.65254 6.556 1.79202C6.266 2.08202 6.266 2.56202 6.556 2.85202C6.726 3.02202 7.026 3.27202 7.386 3.56202L7.527 3.67802C7.815 3.91302 8.228 4.25002 8.577 4.57202H3.497C3.087 4.57202 2.747 4.91202 2.747 5.32202C2.747 5.73202 3.087 6.07202 3.497 6.07202H8.577C8.167 6.45202 7.677 6.85202 7.387 7.08202L7.217 7.22202C6.938 7.45202 6.698 7.65002 6.557 7.79202C6.267 8.08202 6.266 8.56202 6.556 8.85202Z" fill="currentColor"/>
</svg>
