<svg width="24" height="20" viewBox="0 0 24 20" fill="none" xmlns="http://www.w3.org/2000/svg">
<path d="M21.9746 13.5576C22.619 13.6983 23.0996 14.2719 23.0996 14.959C23.0995 15.3154 22.9643 15.6822 22.6807 15.9521L22.5508 16.0615L22.5488 16.0625C21.6383 16.7297 18.4978 18.5996 12.125 18.5996C5.75216 18.5996 2.61169 16.7297 1.70117 16.0625L1.70215 16.0615C1.36704 15.8187 1.19592 15.4594 1.1582 15.1094L1.15039 14.959L1.15723 14.8115C1.2202 14.191 1.6776 13.6881 2.27539 13.5576V11C2.27539 7.56319 4.26308 4.59168 7.14746 3.1709L7.86426 2.81836L8.26074 3.51172L9.02539 4.84766V3.125C9.02539 2.03329 9.90829 1.15039 11 1.15039H13.25C14.3417 1.15039 15.2246 2.03329 15.2246 3.125V4.84766L15.9893 3.51172L16.3857 2.81738L17.1025 3.1709C19.9589 4.57963 21.9395 7.50851 21.9746 10.9072V13.5576Z" stroke="currentColor" stroke-width="1.9"/>
</svg>
