<svg width="24" height="24" viewBox="0 0 24 24" fill="none" xmlns="http://www.w3.org/2000/svg">
<path d="M20.75 15.2783C21.3222 15.4013 21.7499 15.9092 21.75 16.5186C21.75 16.834 21.6298 17.1586 21.3789 17.3975L21.2637 17.4941L21.2617 17.4961C20.4528 18.0887 17.6626 19.75 12 19.75C6.33743 19.75 3.54724 18.0887 2.73828 17.4961L2.73926 17.4951C2.44238 17.2803 2.29026 16.9623 2.25684 16.6523L2.25 16.5186L2.25684 16.3887C2.31269 15.8381 2.719 15.3924 3.25 15.2783V13C3.25 9.94726 5.01605 7.30792 7.57812 6.0459L8.20996 5.73438L8.56055 6.34668L9.25 7.55078V6C9.25 5.03266 10.0327 4.25 11 4.25H13C13.9673 4.25 14.75 5.03266 14.75 6V7.55078L15.4395 6.34668L15.79 5.73438L16.4229 6.0459C18.9598 7.29723 20.7187 9.89833 20.75 12.917V15.2783Z" stroke="currentColor" stroke-width="1.5"/>
</svg>
