<svg width="22" height="22" viewBox="0 0 22 22" fill="none" xmlns="http://www.w3.org/2000/svg">
<path d="M19.358 12.357C18.168 13.546 15.931 13.5 12.499 13.5C11.4383 13.4997 10.4211 13.0782 9.67121 12.3281C8.92128 11.5779 8.49999 10.5607 8.49999 9.49999C8.49999 6.06999 8.45399 3.82999 9.64299 2.64099C10.832 1.45199 11.358 1.50099 16.627 1.50099C16.74 1.50041 16.8506 1.53342 16.9447 1.59583C17.0389 1.65823 17.1124 1.74721 17.1559 1.85148C17.1994 1.95574 17.211 2.07059 17.1891 2.18142C17.1672 2.29226 17.1129 2.39409 17.033 2.47399L14.32 5.18699C14.1523 5.34974 14.0187 5.5442 13.9269 5.75906C13.8351 5.97391 13.7869 6.20488 13.7851 6.43853C13.7833 6.67218 13.828 6.90385 13.9166 7.12007C14.0051 7.3363 14.1358 7.53277 14.3009 7.69805C14.4661 7.86334 14.6624 7.99415 14.8786 8.08287C15.0947 8.1716 15.3264 8.21647 15.56 8.21488C15.7937 8.21329 16.0247 8.16528 16.2396 8.07362C16.4545 7.98197 16.6491 7.8485 16.812 7.68099L19.526 4.96899C19.6058 4.88882 19.7076 4.83421 19.8185 4.81209C19.9294 4.78997 20.0444 4.80134 20.1488 4.84476C20.2533 4.88819 20.3424 4.9617 20.405 5.05594C20.4675 5.15018 20.5006 5.26089 20.5 5.37399C20.5 10.642 20.548 11.168 19.358 12.357Z" stroke="currentColor" stroke-width="1.5" stroke-linecap="round" stroke-linejoin="round"/>
<path d="M12.5 13.5L6.328 19.672C5.794 20.1849 5.08019 20.4681 4.33979 20.4606C3.59939 20.4532 2.89142 20.1557 2.36785 19.6321C1.84428 19.1086 1.54685 18.4006 1.5394 17.6602C1.53195 16.9198 1.81507 16.206 2.328 15.672L8.5 9.5M4.509 17.5H4.5" stroke="currentColor" stroke-width="1.5" stroke-linecap="round" stroke-linejoin="round"/>
</svg>
