<svg width="12" height="20" viewBox="0 0 12 20" fill="none" xmlns="http://www.w3.org/2000/svg">
<path d="M8.35999 13L9.30399 12.454C10.379 11.832 10.916 11.521 10.988 11.078C10.9986 11.0089 11.002 10.9388 10.998 10.869C10.962 10.423 10.452 10.079 9.43299 9.391L4.72599 6.214C2.87699 4.966 2.45199 2.69 3.74999 1M9.99999 3.5C9.99999 3.89782 9.84196 4.27936 9.56065 4.56066C9.27935 4.84196 8.89782 5 8.49999 5C8.10217 5 7.72064 4.84196 7.43933 4.56066C7.15803 4.27936 6.99999 3.89782 6.99999 3.5C6.99999 3.10218 7.15803 2.72064 7.43933 2.43934C7.72064 2.15804 8.10217 2 8.49999 2C8.89782 2 9.27935 2.15804 9.56065 2.43934C9.84196 2.72064 9.99999 3.10218 9.99999 3.5Z" stroke="currentColor" stroke-width="1.5" stroke-linecap="round" stroke-linejoin="round"/>
<path d="M4.726 6.214C2.226 8.714 1 15.632 1 19M4.726 6.214C2.877 4.966 2.452 2.69 3.75 1M4.726 6.214L7.372 8M8.36 13L9.304 12.454C10.379 11.832 10.916 11.521 10.988 11.078C10.9986 11.0089 11.002 10.9388 10.998 10.869C10.962 10.423 10.452 10.079 9.433 9.391L7.373 8C6.67955 8.89746 6.08605 9.86786 5.603 10.894C5.163 11.821 4.944 12.284 4.985 12.814L2 12M9 19C8.027 17.865 7.026 16.3 6.05 14.858C5.367 13.848 5.025 13.342 4.985 12.813" stroke="currentColor" stroke-width="1.5" stroke-linecap="round" stroke-linejoin="round"/>
</svg>
