<svg width="24" height="24" viewBox="0 0 24 24" fill="none" xmlns="http://www.w3.org/2000/svg">
<path d="M13 22H6.59C5.045 22 3.816 21.248 2.713 20.197C0.453 18.044 4.163 16.324 5.578 15.482C7.513 14.3365 9.76144 13.834 12 14.047M15.5 6.5C15.5 7.09095 15.3836 7.67611 15.1575 8.22208C14.9313 8.76804 14.5998 9.26412 14.182 9.68198C13.7641 10.0998 13.268 10.4313 12.7221 10.6575C12.1761 10.8836 11.5909 11 11 11C10.4091 11 9.82389 10.8836 9.27792 10.6575C8.73196 10.4313 8.23588 10.0998 7.81802 9.68198C7.40016 9.26412 7.06869 8.76804 6.84254 8.22208C6.6164 7.67611 6.5 7.09095 6.5 6.5C6.5 5.30653 6.97411 4.16193 7.81802 3.31802C8.66193 2.47411 9.80653 2 11 2C12.1935 2 13.3381 2.47411 14.182 3.31802C15.0259 4.16193 15.5 5.30653 15.5 6.5ZM15.015 15.387C16.088 14.747 17.024 15.005 17.586 15.415C17.816 15.584 17.932 15.668 18 15.668C18.068 15.668 18.183 15.584 18.414 15.415C18.976 15.005 19.912 14.747 20.985 15.387C22.393 16.227 22.711 18.996 19.465 21.332C18.845 21.777 18.537 22 18 22C17.463 22 17.154 21.777 16.536 21.332C13.289 18.996 13.607 16.226 15.015 15.387Z" stroke="currentColor" stroke-width="1.5" stroke-linecap="round" stroke-linejoin="round"/>
</svg>
