<svg width="16" height="20" viewBox="0 0 16 20" fill="none" xmlns="http://www.w3.org/2000/svg">
<path d="M1.5847 5.80017C1.29009 3.9021 2.65824 2.19716 4.74825 1.57252C5.11915 1.46235 5.519 1.49427 5.86673 1.66182C6.21445 1.82937 6.48403 2.12 6.62078 2.47478L7.29175 4.22498C7.39976 4.50655 7.41929 4.81326 7.34783 5.10575C7.27638 5.39825 7.11719 5.66318 6.89071 5.86655L4.89479 7.65447C4.79628 7.7427 4.72288 7.85444 4.68179 7.97874C4.64069 8.10305 4.6333 8.23567 4.66034 8.36361L4.67884 8.44207L4.72666 8.63821C4.9755 9.59103 5.35368 10.507 5.8511 11.3616C6.39423 12.269 7.0674 13.0957 7.85011 13.8164L7.91181 13.8707C8.01145 13.9572 8.13231 14.017 8.2626 14.0442C8.3929 14.0715 8.52818 14.0652 8.65527 14.0261L11.2358 13.231C11.529 13.1409 11.8431 13.1386 12.1378 13.2244C12.4324 13.3101 12.6941 13.48 12.8893 13.7123L14.1109 15.1622C14.6199 15.7658 14.5582 16.6529 13.9736 17.1855C12.3741 18.6445 10.1746 18.9433 8.64447 17.7408C6.76811 16.2617 5.18686 14.4566 3.98012 12.4162C2.76157 10.3786 1.94982 8.13369 1.5847 5.80017ZM6.27682 8.46319L7.93032 6.97853C8.38355 6.57197 8.70221 6.04218 8.8454 5.45718C8.98859 4.87218 8.94978 4.25866 8.73393 3.6954L8.06451 1.9452C7.78988 1.23119 7.2477 0.646215 6.5481 0.309091C5.8485 -0.028033 5.04395 -0.0920244 4.29786 0.130115C1.70193 0.907144 -0.381919 3.18392 0.0592207 6.02799C0.36771 8.01357 1.07878 10.5393 2.64744 13.1767C3.94944 15.3767 5.65513 17.3229 7.6789 18.9176C9.97406 20.7206 13.0374 20.105 15.0271 18.2915C15.5964 17.7729 15.942 17.0614 15.9933 16.3021C16.0447 15.5428 15.7978 14.793 15.3032 14.2057L14.0816 12.7542C13.6908 12.2902 13.1672 11.951 12.578 11.78C11.9888 11.6091 11.3608 11.6141 10.7746 11.7946L8.63213 12.454C8.07892 11.8961 7.59438 11.2768 7.1884 10.6087C6.79665 9.93308 6.49102 9.21305 6.27836 8.4647" fill="currentColor"/>
</svg>
