<svg width="24" height="24" viewBox="0 0 24 24" fill="none" xmlns="http://www.w3.org/2000/svg">
<path d="M20.75 15.2783C21.3222 15.4013 21.7499 15.9092 21.75 16.5186C21.75 16.834 21.6298 17.1586 21.3789 17.3975L21.2637 17.4941L21.2617 17.4961C20.4528 18.0887 17.6626 19.75 12 19.75C6.33743 19.75 3.54724 18.0887 2.73828 17.4961L2.73926 17.4951C2.44238 17.2803 2.29026 16.9623 2.25684 16.6523L2.25 16.5186L2.25684 16.3887C2.31269 15.8381 2.719 15.3924 3.25 15.2783V13C3.25 9.94726 5.01605 7.30792 7.57812 6.0459L8.20996 5.73438L8.56055 6.34668L9.25 7.55078V6C9.25 5.03266 10.0327 4.25 11 4.25H13C13.9673 4.25 14.75 5.03266 14.75 6V7.55078L15.4395 6.34668L15.79 5.73438L16.4229 6.0459C18.9598 7.29723 20.7187 9.89833 20.75 12.917V15.2783Z" stroke="currentColor" stroke-width="1.5"/>
<g clip-path="url(#clip0_4_100)">
<path d="M11 12C11 11.4477 11.4477 11 12 11H15C19.9706 11 24 15.0294 24 20C24 22.2091 22.2091 24 20 24H19C14.5817 24 11 20.4183 11 16V12Z" fill="var(--sidebar-bg, #fff)" class="dark:fill-gray-900"/>
<path d="M18.787 18.487L20.1385 19.8385M20.1022 20.9331C20.0241 20.8598 19.9615 20.7714 19.9182 20.6734C19.8748 20.5754 19.8516 20.4696 19.8499 20.3625C19.8482 20.2553 19.8681 20.1489 19.9083 20.0495C19.9486 19.9502 20.0084 19.8599 20.0842 19.7842C20.16 19.7084 20.2502 19.6486 20.3495 19.6083C20.4489 19.5681 20.5553 19.5482 20.6625 19.5499C20.7696 19.5516 20.8754 19.5748 20.9734 19.6182C21.0714 19.6615 21.1598 19.7241 21.2331 19.8022L22.8776 21.4467C22.9557 21.5201 23.0183 21.6084 23.0617 21.7064C23.105 21.8044 23.1282 21.9102 23.1299 22.0174C23.1316 22.1245 23.1117 22.2309 23.0715 22.3303C23.0312 22.4296 22.9715 22.5199 22.8957 22.5957C22.8199 22.6715 22.7296 22.7312 22.6303 22.7715C22.5309 22.8117 22.4245 22.8316 22.3174 22.8299C22.2102 22.8282 22.1044 22.805 22.0064 22.7617C21.9084 22.7183 21.8201 22.6557 21.7467 22.5776L20.1022 20.9331ZM19.8682 15.7841C19.8682 14.7805 19.4695 13.818 18.7598 13.1083C18.0502 12.3987 17.0877 12 16.0841 12C15.0805 12 14.118 12.3987 13.4083 13.1083C12.6987 13.818 12.3 14.7805 12.3 15.7841C12.3 16.7877 12.6987 17.7502 13.4083 18.4598C14.118 19.1695 15.0805 19.5682 16.0841 19.5682C17.0877 19.5682 18.0502 19.1695 18.7598 18.4598C19.4695 17.7502 19.8682 16.7877 19.8682 15.7841Z" stroke="currentColor" stroke-width="1.5" stroke-linecap="round" stroke-linejoin="round"/>
</g>
<defs>
<clipPath id="clip0_4_100">
<path d="M11 12C11 11.4477 11.4477 11 12 11H15C19.9706 11 24 15.0294 24 20C24 22.2091 22.2091 24 20 24H19C14.5817 24 11 20.4183 11 16V12Z" fill="var(--sidebar-bg, #fff)" class="dark:fill-gray-900"/>
</clipPath>
</defs>
</svg>
