<svg width="24" height="24" viewBox="0 0 24 24" fill="none" xmlns="http://www.w3.org/2000/svg">
<path d="M20.358 13.357C19.168 14.546 16.931 14.5 13.499 14.5C12.4383 14.4998 11.4211 14.0782 10.6712 13.3281C9.92128 12.578 9.49999 11.5607 9.49999 10.5C9.49999 7.07002 9.45399 4.83002 10.643 3.64102C11.832 2.45202 12.358 2.50102 17.627 2.50102C17.74 2.50044 17.8506 2.53345 17.9447 2.59586C18.0389 2.65826 18.1124 2.74724 18.1559 2.85151C18.1994 2.95577 18.211 3.07062 18.1891 3.18145C18.1672 3.29229 18.1129 3.39412 18.033 3.47402L15.32 6.18702C15.1523 6.34977 15.0187 6.54423 14.9269 6.75909C14.8351 6.97394 14.7869 7.20491 14.7851 7.43856C14.7833 7.67221 14.828 7.90388 14.9166 8.1201C15.0051 8.33633 15.1358 8.5328 15.3009 8.69808C15.4661 8.86337 15.6624 8.99418 15.8786 9.0829C16.0947 9.17163 16.3264 9.2165 16.56 9.21491C16.7937 9.21332 17.0247 9.16531 17.2396 9.07365C17.4545 8.982 17.6491 8.84853 17.812 8.68102L20.526 5.96902C20.6058 5.88885 20.7076 5.83424 20.8185 5.81212C20.9294 5.79 21.0444 5.80137 21.1488 5.8448C21.2533 5.88822 21.3424 5.96173 21.405 6.05597C21.4675 6.15021 21.5006 6.26092 21.5 6.37402C21.5 11.642 21.548 12.168 20.358 13.357Z" stroke="currentColor" stroke-width="1.5" stroke-linecap="round" stroke-linejoin="round"/>
<path d="M13.5 14.5L7.328 20.672C6.794 21.1849 6.08019 21.4681 5.33979 21.4606C4.59939 21.4532 3.89142 21.1557 3.36785 20.6321C2.84428 20.1086 2.54685 19.4006 2.5394 18.6602C2.53195 17.9198 2.81507 17.206 3.328 16.672L9.5 10.5M5.509 18.5H5.5" stroke="currentColor" stroke-width="1.5" stroke-linecap="round" stroke-linejoin="round"/>
<g clip-path="url(#clip0_4_208)">
<path d="M11 15C11 12.7909 12.7909 11 15 11H16C20.4183 11 24 14.5817 24 19V20C24 22.2091 22.2091 24 20 24H15C12.7909 24 11 22.2091 11 20V15Z" class="dark:fill-gray-900 fill-white"/>
<path d="M18.487 18.487L19.8385 19.8385M19.8022 20.9331C19.7241 20.8598 19.6615 20.7714 19.6182 20.6734C19.5748 20.5754 19.5516 20.4696 19.5499 20.3625C19.5482 20.2553 19.5681 20.1489 19.6083 20.0495C19.6486 19.9502 19.7084 19.8599 19.7842 19.7842C19.8599 19.7084 19.9502 19.6486 20.0495 19.6083C20.1489 19.5681 20.2553 19.5482 20.3625 19.5499C20.4696 19.5516 20.5754 19.5748 20.6734 19.6182C20.7714 19.6615 20.8598 19.7241 20.9331 19.8022L22.5776 21.4467C22.6557 21.5201 22.7183 21.6084 22.7617 21.7064C22.805 21.8044 22.8282 21.9102 22.8299 22.0174C22.8316 22.1245 22.8117 22.2309 22.7715 22.3303C22.7312 22.4296 22.6715 22.5199 22.5957 22.5957C22.5199 22.6715 22.4296 22.7312 22.3303 22.7715C22.2309 22.8117 22.1245 22.8316 22.0174 22.8299C21.9102 22.8282 21.8044 22.805 21.7064 22.7617C21.6084 22.7183 21.5201 22.6557 21.4467 22.5776L19.8022 20.9331ZM19.5682 15.7841C19.5682 14.7805 19.1695 13.818 18.4598 13.1083C17.7502 12.3987 16.7877 12 15.7841 12C14.7805 12 13.818 12.3987 13.1083 13.1083C12.3987 13.818 12 14.7805 12 15.7841C12 16.7877 12.3987 17.7502 13.1083 18.4598C13.818 19.1695 14.7805 19.5682 15.7841 19.5682C16.7877 19.5682 17.7502 19.1695 18.4598 18.4598C19.1695 17.7502 19.5682 16.7877 19.5682 15.7841Z" stroke="currentColor" stroke-width="1.5" stroke-linecap="round" stroke-linejoin="round"/>
</g>
<defs>
<clipPath id="clip0_4_208">
<path d="M11 15C11 12.7909 12.7909 11 15 11H16C20.4183 11 24 14.5817 24 19V20C24 22.2091 22.2091 24 20 24H15C12.7909 24 11 22.2091 11 20V15Z" fill="white"/>
</clipPath>
</defs>
</svg>
