<svg width="22" height="22" viewBox="0 0 22 22" fill="none" xmlns="http://www.w3.org/2000/svg">
<path d="M6.35414 17C4.23114 17 3.16914 17 2.41414 16.547C1.92361 16.2554 1.52508 15.8315 1.26414 15.324C0.872139 14.554 0.977139 13.537 1.18914 11.502C1.36514 9.804 1.45314 8.955 1.88714 8.331C2.17214 7.921 2.55714 7.586 3.00814 7.354C3.69514 7 4.58214 7 6.35414 7H15.6461C17.4181 7 18.3051 7 18.9921 7.354C19.4431 7.586 19.8281 7.921 20.1131 8.331C20.5471 8.955 20.6351 9.804 20.8111 11.503C21.0231 13.537 21.1281 14.555 20.7351 15.324C20.4747 15.8313 20.0769 16.2551 19.5871 16.547C18.8301 17 17.7691 17 15.6461 17M16.0001 7V5C16.0001 3.114 16.0001 2.172 15.4141 1.586C14.8281 1 13.8861 1 12.0001 1H10.0001C8.11414 1 7.17214 1 6.58614 1.586C6.00014 2.172 6.00014 3.114 6.00014 5V7" stroke="currentColor" stroke-width="1.5" stroke-linecap="round" stroke-linejoin="round"/>
<path d="M12.9891 15H9.01013C8.32513 15 7.98213 15 7.69013 15.109C7.29343 15.2606 6.96015 15.5428 6.74513 15.909C6.57713 16.19 6.49413 16.551 6.32813 17.272C6.06813 18.4 5.93813 18.963 6.02713 19.415C6.14413 20.017 6.51113 20.527 7.02213 20.797C7.40413 21 7.94013 21 9.01013 21H12.9881C14.0581 21 14.5941 21 14.9761 20.797C15.4861 20.527 15.8541 20.017 15.9711 19.415C16.0601 18.963 15.9301 18.4 15.6711 17.272C15.5041 16.552 15.4211 16.19 15.2531 15.91C15.038 15.5432 14.7044 15.2607 14.3071 15.109C14.0171 15 13.6741 15 12.9881 15M17.0001 11H17.0091" stroke="currentColor" stroke-width="1.5" stroke-linecap="round" stroke-linejoin="round"/>
</svg>
