<svg width="24" height="24" viewBox="0 0 24 24" fill="none" xmlns="http://www.w3.org/2000/svg">
<path d="M12 22C16.9706 22 21 17.9706 21 13C21 8.02944 16.9706 4 12 4C7.02944 4 3 8.02944 3 13C3 17.9706 7.02944 22 12 22Z" stroke="currentColor" stroke-width="1.5" stroke-linecap="round" stroke-linejoin="round"/>
<path d="M5 19L3 21M19 19L21 21M19 3.57L19.596 3.272C20.441 2.849 20.758 2.898 21.43 3.57C22.102 4.242 22.15 4.56 21.728 5.404L21.43 6M5 3.57L4.404 3.272C3.559 2.849 3.242 2.898 2.57 3.57C1.898 4.242 1.85 4.56 2.272 5.404L2.57 6M12 9.5V13.5L14 15.5M12 3.5V2M10 2H14" stroke="currentColor" stroke-width="1.5" stroke-linecap="round" stroke-linejoin="round"/>
</svg>
