<svg width="24" height="24" viewBox="0 0 24 24" fill="none" xmlns="http://www.w3.org/2000/svg">
<path d="M8 22V19C8 17.114 8 16.172 8.586 15.586C9.172 15 10.114 15 12 15C13.886 15 14.828 15 15.414 15.586C16 16.172 16 17.114 16 19V22M10 7H14" stroke="currentColor" stroke-width="1.5" stroke-linecap="round" stroke-linejoin="round"/>
<path d="M3 11.858C3 7.282 3 4.994 4.387 3.544C4.43816 3.49051 4.49051 3.43816 4.544 3.387C5.994 2 8.282 2 12.858 2C13.943 2 14.466 2.004 14.963 2.19C15.442 2.368 15.843 2.702 16.645 3.371L18.841 5.201C19.903 6.086 20.433 6.528 20.717 7.133C21 7.737 21 8.428 21 9.81V13C21 16.75 21 18.625 20.045 19.939C19.7366 20.3634 19.3634 20.7366 18.939 21.045C17.625 22 15.749 22 12 22C8.251 22 6.375 22 5.061 21.045C4.6366 20.7366 4.26336 20.3634 3.955 19.939C3 18.625 3 16.749 3 13V11.858Z" stroke="currentColor" stroke-width="1.5" stroke-linecap="round" stroke-linejoin="round"/>
</svg>
