<svg width="24" height="18" viewBox="0 0 24 18" fill="none" xmlns="http://www.w3.org/2000/svg">
<path d="M20.774 15C21.524 15 22.119 14.529 22.654 13.87C23.75 12.52 21.951 11.44 21.265 10.913C20.568 10.376 19.789 10.071 19 10M18 8C18.663 8 19.2989 7.73661 19.7678 7.26777C20.2366 6.79893 20.5 6.16304 20.5 5.5C20.5 4.83696 20.2366 4.20107 19.7678 3.73223C19.2989 3.26339 18.663 3 18 3M3.226 15C2.476 15 1.881 14.529 1.346 13.87C0.250002 12.52 2.049 11.44 2.735 10.913C3.432 10.376 4.21 10.07 5 10M5.5 8C4.83696 8 4.20108 7.73661 3.73224 7.26777C3.26339 6.79893 3 6.16304 3 5.5C3 4.83696 3.26339 4.20107 3.73224 3.73223C4.20108 3.26339 4.83696 3 5.5 3M8.084 12.111C7.062 12.743 4.383 14.033 6.014 15.647C6.813 16.436 7.7 17 8.817 17H15.185C16.302 17 17.189 16.436 17.986 15.647C19.618 14.033 16.939 12.743 15.917 12.111C14.7398 11.385 13.384 11.0005 12.001 11.0005C10.618 11.0005 9.26216 11.385 8.085 12.111M15.5 4.5C15.5 4.95963 15.4095 5.41475 15.2336 5.83939C15.0577 6.26403 14.7999 6.64987 14.4749 6.97487C14.1499 7.29988 13.764 7.55769 13.3394 7.73358C12.9148 7.90947 12.4596 8 12 8C11.5404 8 11.0852 7.90947 10.6606 7.73358C10.236 7.55769 9.85013 7.29988 9.52513 6.97487C9.20012 6.64987 8.94232 6.26403 8.76642 5.83939C8.59053 5.41475 8.5 4.95963 8.5 4.5C8.5 3.57174 8.86875 2.6815 9.52513 2.02513C10.1815 1.36875 11.0717 1 12 1C12.9283 1 13.8185 1.36875 14.4749 2.02513C15.1313 2.6815 15.5 3.57174 15.5 4.5Z" stroke="currentColor" stroke-width="1.5" stroke-linecap="round" stroke-linejoin="round"/>
</svg>
